<svg width="271" height="61" viewBox="0 0 271 61" fill="none" xmlns="http://www.w3.org/2000/svg">
<g clip-path="url(#clip0_1199_10128)">
<path fill-rule="evenodd" clip-rule="evenodd" d="M213.078 18.64C211.531 22.2667 210.758 26.1067 210.758 30.16C210.758 34.32 211.531 38.2133 213.078 41.84C214.624 45.4667 216.758 48.6667 219.478 51.44C222.251 54.16 215.478 60.16 215.478 60.16H240.758C244.864 60.16 248.731 59.3867 252.358 57.84C255.984 56.2933 259.184 54.16 261.958 51.44C264.784 48.6667 266.971 45.4667 268.518 41.84C270.118 38.2133 270.918 34.32 270.918 30.16C270.918 26.1067 270.118 22.2667 268.518 18.64C266.971 15.0133 264.784 11.8133 261.958 9.04C259.184 6.21333 255.984 4 252.358 2.4C248.731 0.799999 244.864 0 240.758 0C236.598 0 232.704 0.799999 229.078 2.4C225.451 4 222.251 6.21333 219.478 9.04C216.758 11.8133 214.624 15.0133 213.078 18.64ZM225.158 39.68C223.558 36.8 222.758 33.6267 222.758 30.16C222.758 26.5867 223.558 23.3867 225.158 20.56C226.758 17.68 228.918 15.4133 231.638 13.76C234.358 12.0533 237.424 11.2 240.838 11.2C244.251 11.2 247.318 12.0533 250.038 13.76C252.758 15.4133 254.918 17.68 256.518 20.56C258.118 23.3867 258.918 26.5867 258.918 30.16C258.918 33.6267 258.144 36.8 256.598 39.68C255.051 42.5067 252.918 44.7733 250.198 46.48C247.531 48.1333 244.518 48.96 241.158 48.96C237.691 48.96 234.571 48.1333 231.798 46.48C229.024 44.7733 226.811 42.5067 225.158 39.68Z" fill="black"/>
<path fill-rule="evenodd" clip-rule="evenodd" d="M38.5572 0.639997C45.9705 0.639997 51.6505 2.45333 55.5972 6.08C59.5972 9.65333 61.5972 14.4533 61.5972 20.48C61.5972 23.84 60.8772 27.1467 59.4372 30.4C58.0505 33.6533 55.6772 36.24 52.3172 38.16L65.9972 59.52H52.4772L40.0772 40.8H32.3172V59.52H20.7172V10.52L0 0.639997H38.5572ZM40.5572 29.6C42.9038 29.6 44.7172 29.12 45.9972 28.16C47.3305 27.1467 48.2638 25.9733 48.7972 24.64C49.3305 23.2533 49.5972 22 49.5972 20.88C49.5972 20.24 49.4905 19.44 49.2772 18.48C49.1172 17.4667 48.7438 16.4533 48.1572 15.44C47.5705 14.4267 46.6638 13.5733 45.4372 12.88C44.2638 12.1867 42.6638 11.84 40.6372 11.84H32.3172V29.6H40.5572Z" fill="black"/>
<path d="M131.561 0.639997H143.161V59.52H131.561V0.639997Z" fill="black"/>
<path d="M186 57.02C185.172 57.02 184.5 57.6916 184.5 58.52C184.5 59.3484 185.172 60.02 186 60.02L208 60.02C208.828 60.02 209.5 59.3484 209.5 58.52C209.5 57.6916 208.828 57.02 208 57.02L186 57.02Z" fill="black"/>
<path d="M203.5 52.52C203.5 51.6916 204.172 51.02 205 51.02H212C212.828 51.02 213.5 51.6916 213.5 52.52C213.5 53.3484 212.828 54.02 212 54.02H205C204.172 54.02 203.5 53.3484 203.5 52.52Z" fill="black"/>
<path d="M197 45.02C196.172 45.02 195.5 45.6916 195.5 46.52C195.5 47.3484 196.172 48.02 197 48.02H208C208.828 48.02 209.5 47.3484 209.5 46.52C209.5 45.6916 208.828 45.02 208 45.02H197Z" fill="black"/>
</g>
<defs>
<clipPath id="clip0_1199_10128">
<rect width="270.918" height="60.16" fill="white"/>
</clipPath>
</defs>
</svg>
