<svg width="11" height="23" viewBox="0 0 11 23" fill="none" xmlns="http://www.w3.org/2000/svg">
<path d="M10.0256 23C9.89813 23.0007 9.77174 22.9765 9.65371 22.9289C9.53568 22.8812 9.42833 22.8109 9.3378 22.7221L1.42305 14.8939C0.971961 14.4488 0.614074 13.9202 0.369884 13.3381C0.125695 12.7561 0 12.1321 0 11.502C0 10.8718 0.125695 10.2478 0.369884 9.66578C0.614074 9.08374 0.971961 8.55506 1.42305 8.11003L9.3378 0.28179C9.42813 0.192451 9.53536 0.121584 9.65338 0.0732347C9.7714 0.0248852 9.89788 9.41332e-10 10.0256 0C10.1534 -9.41332e-10 10.2799 0.0248852 10.3979 0.0732347C10.5159 0.121584 10.6231 0.192451 10.7134 0.28179C10.8038 0.371128 10.8754 0.477188 10.9243 0.593914C10.9732 0.71064 10.9983 0.835746 10.9983 0.96209C10.9983 1.08843 10.9732 1.21354 10.9243 1.33027C10.8754 1.44699 10.8038 1.55305 10.7134 1.64239L2.79868 9.47063C2.25443 10.0096 1.94873 10.7402 1.94873 11.502C1.94873 12.2637 2.25443 12.9943 2.79868 13.5333L10.7134 21.3615C10.8042 21.4506 10.8763 21.5566 10.9255 21.6733C10.9747 21.7901 11 21.9153 11 22.0418C11 22.1683 10.9747 22.2935 10.9255 22.4103C10.8763 22.5271 10.8042 22.633 10.7134 22.7221C10.6229 22.8109 10.5156 22.8812 10.3975 22.9289C10.2795 22.9765 10.1531 23.0007 10.0256 23Z" fill="#171717"/>
</svg>
