<svg width="27" height="28" viewBox="0 0 27 28" fill="none" xmlns="http://www.w3.org/2000/svg">
<path d="M26.5494 18.8976L23.5172 7.96891C22.8697 5.63111 21.4589 3.57707 19.5092 2.13368C17.5596 0.690301 15.1832 -0.0594747 12.7582 0.00368764C10.3332 0.06685 7.99904 0.939321 6.12716 2.48224C4.25529 4.02516 2.95329 6.14987 2.42839 8.5182L0.0831088 19.0725C-0.0303734 19.5839 -0.0276053 20.1141 0.0912087 20.6242C0.210023 21.1344 0.441851 21.6113 0.769589 22.0198C1.09733 22.4284 1.51261 22.7581 1.98481 22.9848C2.457 23.2114 2.97405 23.3291 3.49781 23.3293H7.70439C7.97205 24.6474 8.6872 25.8325 9.72865 26.6838C10.7701 27.535 12.0738 28 13.4189 28C14.764 28 16.0677 27.535 17.1091 26.6838C18.1506 25.8325 18.8657 24.6474 19.1334 23.3293H23.1802C23.7191 23.329 24.2507 23.2043 24.7335 22.9648C25.2162 22.7253 25.6372 22.3775 25.9634 21.9485C26.2896 21.5195 26.5124 21.021 26.6142 20.4918C26.7161 19.9626 26.6931 19.417 26.5494 18.8976ZM13.4189 25.6617C12.6979 25.6587 11.9954 25.433 11.4075 25.0155C10.8196 24.598 10.3751 24.0091 10.1348 23.3293H16.703C16.4626 24.0091 16.0181 24.598 15.4303 25.0155C14.8424 25.433 14.1399 25.6587 13.4189 25.6617ZM24.1073 20.5361C23.9985 20.6804 23.8575 20.7972 23.6955 20.8772C23.5335 20.9571 23.355 20.9981 23.1744 20.9968H3.49781C3.32319 20.9968 3.15079 20.9575 2.99336 20.882C2.83593 20.8064 2.69748 20.6964 2.58822 20.5602C2.47897 20.424 2.4017 20.265 2.36213 20.0949C2.32256 19.9248 2.32168 19.748 2.35958 19.5775L4.70486 9.02317C5.11811 7.16445 6.14084 5.49721 7.61046 4.28649C9.08007 3.07577 10.9122 2.39105 12.8157 2.34119C14.7191 2.29132 16.5846 2.87917 18.1156 4.01129C19.6466 5.1434 20.7552 6.7548 21.2652 8.58934L24.2974 19.518C24.3469 19.6908 24.3555 19.8728 24.3225 20.0495C24.2896 20.2262 24.2159 20.3928 24.1073 20.5361Z" fill="#4F4E4E"/>
</svg>
