<svg width="26" height="27" viewBox="0 0 26 27" fill="none" xmlns="http://www.w3.org/2000/svg">
<path d="M25.0477 10.0039L16.8307 1.78082C15.8137 0.766199 14.4361 0.196442 13 0.196442C11.5639 0.196442 10.1863 0.766199 9.16934 1.78082L0.952262 10.0039C0.64939 10.305 0.409263 10.6633 0.245802 11.058C0.0823411 11.4526 -0.00120293 11.8758 1.30861e-05 12.303V22.9445C1.30861e-05 23.807 0.342422 24.6341 0.951915 25.244C1.56141 25.8538 2.38806 26.1964 3.25001 26.1964H22.75C23.6119 26.1964 24.4386 25.8538 25.0481 25.244C25.6576 24.6341 26 23.807 26 22.9445V12.303C26.0012 11.8758 25.9177 11.4526 25.7542 11.058C25.5907 10.6633 25.3506 10.305 25.0477 10.0039ZM16.25 24.0285H9.75V19.7641C9.75 18.9016 10.0924 18.0745 10.7019 17.4646C11.3114 16.8548 12.138 16.5121 13 16.5121C13.862 16.5121 14.6886 16.8548 15.2981 17.4646C15.9076 18.0745 16.25 18.9016 16.25 19.7641V24.0285ZM23.8333 22.9445C23.8333 23.232 23.7192 23.5077 23.516 23.711C23.3129 23.9143 23.0373 24.0285 22.75 24.0285H18.4167V19.7641C18.4167 18.3266 17.846 16.9481 16.8302 15.9316C15.8143 14.9152 14.4366 14.3442 13 14.3442C11.5634 14.3442 10.1857 14.9152 9.16984 15.9316C8.15402 16.9481 7.58334 18.3266 7.58334 19.7641V24.0285H3.25001C2.96269 24.0285 2.68714 23.9143 2.48398 23.711C2.28081 23.5077 2.16668 23.232 2.16668 22.9445V12.303C2.16768 12.0158 2.28172 11.7404 2.48409 11.5367L10.7012 3.31682C11.3118 2.70863 12.1384 2.36719 13 2.36719C13.8616 2.36719 14.6882 2.70863 15.2988 3.31682L23.5159 11.5399C23.7175 11.7429 23.8315 12.0169 23.8333 12.303V22.9445Z" fill="white"/>
</svg>
