<svg width="26" height="25" viewBox="0 0 26 25" fill="none" xmlns="http://www.w3.org/2000/svg">
<path d="M18.9559 0.196442C17.7365 0.216368 16.5437 0.573976 15.498 1.23315C14.4522 1.89233 13.5906 2.82974 13 3.9507C12.4094 2.82974 11.5478 1.89233 10.502 1.23315C9.45627 0.573976 8.26346 0.216368 7.04407 0.196442C5.10021 0.285168 3.26877 1.17853 1.94989 2.68134C0.631004 4.18416 -0.0681244 6.17428 0.00524241 8.21691C0.00524241 13.3898 5.18798 19.0394 9.53473 22.8699C10.5052 23.7267 11.7323 24.1964 13 24.1964C14.2677 24.1964 15.4948 23.7267 16.4653 22.8699C20.812 19.0394 25.9948 13.3898 25.9948 8.21691C26.0681 6.17428 25.369 4.18416 24.0501 2.68134C22.7312 1.17853 20.8998 0.285168 18.9559 0.196442ZM15.0737 21.1293C14.4933 21.6428 13.7588 21.9244 13 21.9244C12.2412 21.9244 11.5067 21.6428 10.9263 21.1293C5.36233 16.2249 2.17104 11.5195 2.17104 8.21691C2.09701 6.77745 2.56777 5.36564 3.48065 4.28938C4.39353 3.21313 5.67446 2.55975 7.04407 2.47175C8.41368 2.55975 9.69461 3.21313 10.6075 4.28938C11.5204 5.36564 11.9911 6.77745 11.9171 8.21691C11.9171 8.51863 12.0312 8.808 12.2343 9.02135C12.4374 9.2347 12.7128 9.35456 13 9.35456C13.2872 9.35456 13.5626 9.2347 13.7657 9.02135C13.9688 8.808 14.0829 8.51863 14.0829 8.21691C14.0089 6.77745 14.4796 5.36564 15.3925 4.28938C16.3054 3.21313 17.5863 2.55975 18.9559 2.47175C20.3255 2.55975 21.6065 3.21313 22.5193 4.28938C23.4322 5.36564 23.903 6.77745 23.829 8.21691C23.829 11.5195 20.6377 16.2249 15.0737 21.1247V21.1293Z" fill="white"/>
</svg>
