<svg width="5" height="26" viewBox="0 0 5 26" fill="none" xmlns="http://www.w3.org/2000/svg">
<path d="M2.13642 4.27285C3.31634 4.27285 4.27285 3.31634 4.27285 2.13642C4.27285 0.956509 3.31634 0 2.13642 0C0.956509 0 0 0.956509 0 2.13642C0 3.31634 0.956509 4.27285 2.13642 4.27285Z" fill="white"/>
<path d="M2.13642 14.955C3.31634 14.955 4.27285 13.9985 4.27285 12.8186C4.27285 11.6386 3.31634 10.6821 2.13642 10.6821C0.956509 10.6821 0 11.6386 0 12.8186C0 13.9985 0.956509 14.955 2.13642 14.955Z" fill="white"/>
<path d="M2.13642 25.6371C3.31634 25.6371 4.27285 24.6806 4.27285 23.5007C4.27285 22.3207 3.31634 21.3642 2.13642 21.3642C0.956509 21.3642 0 22.3207 0 23.5007C0 24.6806 0.956509 25.6371 2.13642 25.6371Z" fill="white"/>
</svg>
