<svg width="20" height="20" viewBox="0 0 20 20" fill="none" xmlns="http://www.w3.org/2000/svg">
<path d="M0.833333 3.95855H3.11333C3.2922 4.61666 3.68264 5.19763 4.22444 5.61182C4.76623 6.02602 5.42927 6.25043 6.11125 6.25043C6.79323 6.25043 7.45627 6.02602 7.99806 5.61182C8.53986 5.19763 8.9303 4.61666 9.10917 3.95855H19.1667C19.3877 3.95855 19.5996 3.87075 19.7559 3.71447C19.9122 3.55819 20 3.34623 20 3.12522C20 2.9042 19.9122 2.69224 19.7559 2.53596C19.5996 2.37968 19.3877 2.29188 19.1667 2.29188H9.10917C8.9303 1.63377 8.53986 1.0528 7.99806 0.638607C7.45627 0.224409 6.79323 0 6.11125 0C5.42927 0 4.76623 0.224409 4.22444 0.638607C3.68264 1.0528 3.2922 1.63377 3.11333 2.29188H0.833333C0.61232 2.29188 0.400358 2.37968 0.244078 2.53596C0.0877974 2.69224 0 2.9042 0 3.12522C0 3.34623 0.0877974 3.55819 0.244078 3.71447C0.400358 3.87075 0.61232 3.95855 0.833333 3.95855ZM6.11083 1.66688C6.39926 1.66688 6.68122 1.75241 6.92104 1.91266C7.16086 2.0729 7.34778 2.30066 7.45816 2.56714C7.56854 2.83361 7.59742 3.12683 7.54115 3.40972C7.48488 3.69261 7.34598 3.95246 7.14203 4.15641C6.93808 4.36036 6.67823 4.49926 6.39534 4.55553C6.11245 4.6118 5.81923 4.58292 5.55275 4.47254C5.28628 4.36216 5.05852 4.17524 4.89827 3.93542C4.73803 3.6956 4.6525 3.41365 4.6525 3.12522C4.65294 2.73858 4.80673 2.3679 5.08012 2.09451C5.35352 1.82111 5.72419 1.66732 6.11083 1.66688Z" fill="white"/>
<path d="M19.1667 9.16712H16.8867C16.7081 8.50885 16.3178 7.92767 15.7761 7.5133C15.2343 7.09894 14.5712 6.87442 13.8892 6.87442C13.2071 6.87442 12.544 7.09894 12.0023 7.5133C11.4605 7.92767 11.0702 8.50885 10.8917 9.16712H0.833333C0.61232 9.16712 0.400358 9.25491 0.244078 9.41119C0.0877974 9.56747 0 9.77943 0 10.0004C0 10.2215 0.0877974 10.4334 0.244078 10.5897C0.400358 10.746 0.61232 10.8338 0.833333 10.8338H10.8917C11.0702 11.492 11.4605 12.0732 12.0023 12.4876C12.544 12.902 13.2071 13.1265 13.8892 13.1265C14.5712 13.1265 15.2343 12.902 15.7761 12.4876C16.3178 12.0732 16.7081 11.492 16.8867 10.8338H19.1667C19.3877 10.8338 19.5996 10.746 19.7559 10.5897C19.9122 10.4334 20 10.2215 20 10.0004C20 9.77943 19.9122 9.56747 19.7559 9.41119C19.5996 9.25491 19.3877 9.16712 19.1667 9.16712ZM13.8892 11.4588C13.6007 11.4588 13.3188 11.3733 13.079 11.213C12.8391 11.0528 12.6522 10.825 12.5418 10.5585C12.4315 10.2921 12.4026 9.99883 12.4589 9.71594C12.5151 9.43305 12.654 9.1732 12.858 8.96925C13.0619 8.7653 13.3218 8.62641 13.6047 8.57014C13.8875 8.51387 14.1808 8.54275 14.4472 8.65312C14.7137 8.7635 14.9415 8.95042 15.1017 9.19024C15.262 9.43006 15.3475 9.71202 15.3475 10.0004C15.3471 10.3871 15.1933 10.7578 14.9199 11.0312C14.6465 11.3046 14.2758 11.4583 13.8892 11.4588Z" fill="white"/>
<path d="M19.1667 16.0421H9.10917C8.9303 15.384 8.53986 14.803 7.99806 14.3889C7.45627 13.9747 6.79323 13.7502 6.11125 13.7502C5.42927 13.7502 4.76623 13.9747 4.22444 14.3889C3.68264 14.803 3.2922 15.384 3.11333 16.0421H0.833333C0.61232 16.0421 0.400358 16.1299 0.244078 16.2862C0.0877974 16.4425 0 16.6544 0 16.8755C0 17.0965 0.0877974 17.3084 0.244078 17.4647C0.400358 17.621 0.61232 17.7088 0.833333 17.7088H3.11333C3.2922 18.3669 3.68264 18.9479 4.22444 19.3621C4.76623 19.7763 5.42927 20.0007 6.11125 20.0007C6.79323 20.0007 7.45627 19.7763 7.99806 19.3621C8.53986 18.9479 8.9303 18.3669 9.10917 17.7088H19.1667C19.3877 17.7088 19.5996 17.621 19.7559 17.4647C19.9122 17.3084 20 17.0965 20 16.8755C20 16.6544 19.9122 16.4425 19.7559 16.2862C19.5996 16.1299 19.3877 16.0421 19.1667 16.0421ZM6.11083 18.3338C5.8224 18.3338 5.54045 18.2483 5.30063 18.088C5.0608 17.9278 4.87389 17.7 4.76351 17.4335C4.65313 17.1671 4.62425 16.8738 4.68052 16.591C4.73679 16.3081 4.87568 16.0482 5.07964 15.8443C5.28359 15.6403 5.54344 15.5014 5.82633 15.4451C6.10922 15.3889 6.40244 15.4178 6.66891 15.5281C6.93539 15.6385 7.16315 15.8254 7.32339 16.0653C7.48364 16.3051 7.56917 16.587 7.56917 16.8755C7.56851 17.262 7.41465 17.6326 7.1413 17.9059C6.86795 18.1793 6.4974 18.3331 6.11083 18.3338Z" fill="white"/>
</svg>
