<svg width="27" height="27" viewBox="0 0 27 27" fill="none" xmlns="http://www.w3.org/2000/svg">
<path d="M26.3929 3.29911H4.66494L4.61876 2.91312C4.52423 2.11079 4.13861 1.37104 3.53499 0.834101C2.93137 0.297166 2.15171 0.000375872 1.34384 0L0 0V2.19941H1.34384C1.61319 2.19944 1.87317 2.29833 2.07445 2.47732C2.27573 2.65631 2.40433 2.90294 2.43584 3.17045L4.17887 17.9813C4.2734 18.7836 4.65902 19.5233 5.26264 20.0603C5.86627 20.5972 6.64592 20.894 7.45379 20.8944H21.9941V18.695H7.45379C7.18427 18.6949 6.92416 18.5959 6.72285 18.4166C6.52154 18.2374 6.39305 17.9905 6.36179 17.7228L6.21772 16.4956H24.0131L26.3929 3.29911ZM22.1744 14.2961H5.95929L4.92447 5.49852H23.7613L22.1744 14.2961Z" fill="white"/>
<path d="M7.69782 26.3929C8.91252 26.3929 9.89723 25.4082 9.89723 24.1935C9.89723 22.9788 8.91252 21.9941 7.69782 21.9941C6.48312 21.9941 5.49841 22.9788 5.49841 24.1935C5.49841 25.4082 6.48312 26.3929 7.69782 26.3929Z" fill="white"/>
<path d="M18.6949 26.3929C19.9096 26.3929 20.8943 25.4082 20.8943 24.1935C20.8943 22.9788 19.9096 21.9941 18.6949 21.9941C17.4802 21.9941 16.4955 22.9788 16.4955 24.1935C16.4955 25.4082 17.4802 26.3929 18.6949 26.3929Z" fill="white"/>
</svg>
