<svg width="21" height="27" viewBox="0 0 21 27" fill="none" xmlns="http://www.w3.org/2000/svg">
<path d="M10.2901 13.1964C11.5951 13.1964 12.8708 12.8095 13.9559 12.0844C15.041 11.3594 15.8867 10.3289 16.3861 9.12326C16.8855 7.91759 17.0162 6.59091 16.7616 5.31098C16.507 4.03105 15.8785 2.85536 14.9558 1.93258C14.033 1.0098 12.8573 0.38138 11.5774 0.126786C10.2974 -0.127808 8.97075 0.00285892 7.76509 0.502263C6.55942 1.00167 5.52892 1.84738 4.8039 2.93245C4.07887 4.01752 3.69189 5.29322 3.69189 6.59823C3.69364 8.34765 4.38937 10.0249 5.6264 11.2619C6.86343 12.499 8.5407 13.1947 10.2901 13.1964ZM10.2901 2.19941C11.1601 2.19941 12.0106 2.4574 12.734 2.94074C13.4573 3.42409 14.0212 4.11109 14.3541 4.91487C14.687 5.71865 14.7741 6.60311 14.6044 7.45639C14.4347 8.30968 14.0157 9.09347 13.4005 9.70866C12.7854 10.3238 12.0016 10.7428 11.1483 10.9125C10.295 11.0822 9.41054 10.9951 8.60676 10.6622C7.80298 10.3293 7.11598 9.76546 6.63264 9.04208C6.14929 8.3187 5.8913 7.46823 5.8913 6.59823C5.8913 5.43159 6.35475 4.31273 7.17969 3.48779C8.00462 2.66286 9.12348 2.19941 10.2901 2.19941Z" fill="white"/>
<path d="M10.2902 15.3958C7.66611 15.3988 5.15038 16.4424 3.2949 18.2979C1.43942 20.1534 0.395733 22.6691 0.392822 25.2932C0.392822 25.5848 0.508684 25.8646 0.714918 26.0708C0.921152 26.277 1.20087 26.3929 1.49253 26.3929C1.78419 26.3929 2.0639 26.277 2.27013 26.0708C2.47637 25.8646 2.59223 25.5848 2.59223 25.2932C2.59223 23.2516 3.40326 21.2936 4.8469 19.8499C6.29054 18.4063 8.24854 17.5953 10.2902 17.5953C12.3318 17.5953 14.2898 18.4063 15.7334 19.8499C17.1771 21.2936 17.9881 23.2516 17.9881 25.2932C17.9881 25.5848 18.1039 25.8646 18.3102 26.0708C18.5164 26.277 18.7961 26.3929 19.0878 26.3929C19.3794 26.3929 19.6592 26.277 19.8654 26.0708C20.0716 25.8646 20.1875 25.5848 20.1875 25.2932C20.1846 22.6691 19.1409 20.1534 17.2854 18.2979C15.4299 16.4424 12.9142 15.3988 10.2902 15.3958Z" fill="white"/>
</svg>
